<?xml version="1.0" encoding="utf-8"?>
<!-- Generator: Adobe Illustrator 28.1.0, SVG Export Plug-In . SVG Version: 6.00 Build 0)  -->
<svg version="1.1" id="Layer_1" xmlns="http://www.w3.org/2000/svg" xmlns:xlink="http://www.w3.org/1999/xlink" x="0px" y="0px"
	 viewBox="0 0 1021.3 505.2" style="enable-background:new 0 0 1021.3 505.2;" xml:space="preserve">
<style type="text/css">
	.st0{fill:#FFFFFF;}
</style>
<g>
	<g>
		<path class="st0" d="M434.5,291.8c-8.9-3.2-17.3-7.1-25.6-11.6c-23.3-12.6-44.5-27.8-61.2-48.5c-13-16.1-22.6-33.9-25.6-54.8
			c-3.7-25.6,8.9-49,32.5-60c22.1-10.3,45.1-10.7,68.5-6.5c26.7,4.7,50,16.9,70.5,34.5c2.6,2.2,4.9,4.9,7.1,7.5
			c1.6,1.9,3.1,4,1.6,6.7c-1.4,2.4-3.8,2.9-6.3,3c-4.1,0.1-8-1-11.8-2.2c-11.9-3.9-23.7-8.2-35.6-12c-9.9-3.2-20-5.5-30.5-5.3
			c-21.4,0.3-32,13.8-26.9,34.5c3.4,13.9,10.1,26.3,17.6,38.3c6.7,10.7,14.2,20.7,23.1,29.6c1.5,1.5,2.2,3.1,2.3,5.3
			c0.2,13.4-0.8,26.8,0.8,40.2C434.9,290.7,434.7,291.1,434.5,291.8z"/>
		<path class="st0" d="M587.9,291.3c1.8-14.5,0.8-28.7,1-42.9c0-2.1,1.4-3.1,2.5-4.3c16.2-17.3,29.3-36.6,36.8-59.4
			c2.1-6.5,3.6-13.1,3-20c-0.9-9.3-5.5-15.9-14.3-19.3c-7-2.7-14.3-3.1-21.7-2.3c-14.9,1.6-28.6,7.4-42.6,12.5
			c-7.3,2.7-14.7,5.1-22.3,6.9c-1.5,0.4-3.1,0.6-4.7,0.7c-2.6,0.2-4.9-0.4-6.3-2.9c-1.4-2.4-0.2-4.5,1.2-6.4
			c6.7-9.1,15.5-15.9,25-21.7c18.9-11.5,38.9-20.1,61-22.7c25.4-2.9,49.9-0.7,71.3,15.1c18.9,14,24.6,33.4,21,55.9
			c-3.8,23.5-16.2,42.6-32.2,59.5c-21.5,22.8-47.8,38.7-76.6,50.6C589.6,290.9,588.9,291,587.9,291.3z"/>
		<path class="st0" d="M577.5,223.8c0,18.9-0.5,37.8,0.1,56.6c0.5,16.6-10.6,23.8-23.3,24c-28.2,0.4-56.5,0.2-84.7,0.2
			c-7.3,0-14-1.9-19.2-7.4c-4.1-4.3-5.7-9.6-5.7-15.4c0-39.8,0.2-79.6,0.2-119.3c0-3.9,1.2-3.6,4.1-2.7c11.8,3.9,11.8,3.8,11.8,16.2
			c0,22.3,0,44.7,0,67c0,8.4,4.9,13.4,13.4,13.5c24.4,0.1,48.7,0.1,73.1,0c9.8,0,14.2-4.6,14.2-14.4c0-24.2,0-48.4-0.1-72.6
			c0-2.9,0.7-4.5,3.5-5.4c3.3-1,6.4-2.5,9.6-3.9c2.6-1.2,3.1-0.3,3.1,2.3c-0.1,15.4,0,30.8,0,46.3
			C577.5,213.7,577.5,218.7,577.5,223.8C577.5,223.8,577.5,223.8,577.5,223.8z M511.7,288.2C511.7,288.3,511.7,288.3,511.7,288.2
			c1.3,0.1,2.6,0.1,3.9,0.1c5.3-0.1,9.2-3,9.8-7.2c0.5-3.9-2.9-8.5-7.7-9.6c-4.5-1.1-9.2-1-13.6,0.4c-4.1,1.3-6.9,5.5-6.4,9.2
			c0.5,4,4.1,6.9,8.9,7.2C508.2,288.3,509.9,288.2,511.7,288.2z"/>
		<path class="st0" d="M394,19c13.7,0.4,25.7,4.7,34.6,15.7c11.9,14.7,10.9,34.7-2.4,48.3c-15.8,16.3-45.2,17.5-62.3,2.6
			c-22-19.2-16.2-52.5,11.1-63.1c2.8-1.1,5.8-1.8,8.7-2.5C387.1,19.2,390.5,19,394,19z"/>
		<path class="st0" d="M626.1,96.2c-13.2-0.2-25.1-4.1-33.9-14.4c-15-17.6-11.2-41.8,8.4-55.2c17.1-11.7,42.7-9.4,57.5,5.1
			c17.4,17.2,14.3,44.6-6.5,57.5C643.8,94.1,635.3,96.5,626.1,96.2z"/>
		<path class="st0" d="M510.4,92.5c13.1,0,26.2,0,39.3,0c8,0,15,5.4,16.8,12.5c0.5,1.9,0.2,2.9-1.6,3.7c-2.5,1-4.9,2.3-7.4,3.6
			c-2.9,1.5-5.7,3.8-8.7-0.2c-1-1.3-3.2-0.9-4.9-0.9c-22,0-44.1,0-66.1,0c-3,0-6.1-0.3-8.5,2.3c-1.1,1.3-2.1,0.2-3-0.2
			c-3.6-1.7-7.2-3.7-10.9-5.2c-2.3-0.9-2.1-2.1-1.5-4c2.4-6.8,9.1-11.3,17.2-11.4C484.2,92.6,497.3,92.6,510.4,92.5
			C510.4,92.6,510.4,92.6,510.4,92.5z"/>
	</g>
	<g>
		<path class="st0" d="M606.3,386.2c-0.4,21.2-2,42.3-2.1,63.4c0,4.3-1.4,5.4-5.4,5.1c-4.1-0.3-8.4-0.4-12.5,0
			c-4.4,0.4-5.3-1.4-5-5.3c1-14.8,1.9-29.6,2.6-44.4c0.7-15,1.2-29.9,1.5-44.9c0.1-3.2,0.7-4.4,4.1-4.2c6,0.3,12,0.2,18-0.1
			c3.3-0.1,4.9,0.9,6.3,4c8.6,18.7,17.4,37.3,25.5,57.2c7.6-18.8,15.9-36.5,23.7-54.4c2.2-5,4.5-7.7,10.5-6.9
			c5.1,0.7,10.3,0.2,15.5,0c2.7-0.1,3.8,0.6,3.9,3.5c1.3,30.3,2.7,60.5,4.2,90.8c0.2,3.4-0.5,4.8-4.2,4.6c-4.8-0.3-9.7-0.3-14.5,0
			c-3.4,0.2-4.1-1.1-4.2-4.2c-0.4-20.8-1-41.6-1.6-62.4c0-0.7,0.3-1.6-1.1-2.5c-1.2,2.9-2.3,5.8-3.5,8.6
			c-6.3,14.3-12.6,28.6-18.8,43c-1.6,3.7-3.6,5.7-7.8,5.1c-1.6-0.2-3.3-0.2-5,0c-3,0.4-4.8-0.6-6.1-3.6
			c-7.6-16.8-15.4-33.6-23.1-50.3C607,387.6,606.6,386.9,606.3,386.2z"/>
		<path class="st0" d="M110.9,431.8c1.7,4.5,3.2,8.9,4.9,13.2c0.9,2.3,0.7,3.7-1.8,4.7c-22.5,9.4-44.8,10.3-65.7-3.7
			c-16-10.7-20.6-27.3-19.3-45.5c1.8-25.8,20-43.5,46.2-46c12.9-1.3,25.2,0,37,5.5c3.1,1.4,4.4,2.8,2.4,6.3c-2,3.6-2.3,9.1-5.2,11
			c-2.8,1.8-6.9-2.7-10.7-3.6c-5.5-1.4-11.1-2.5-16.8-1.9c-13.6,1.5-23.7,7.7-27.6,21.4c-4.1,14.3-2.6,28,9.2,38
			c12.4,10.5,26.8,8.9,41.1,3.7C106.7,434,108.7,432.9,110.9,431.8z"/>
		<path class="st0" d="M818.6,433.5c5.5-15.3,10.8-29.6,15.6-44c1.3-3.8,2.8-5.3,6.9-5c5.4,0.4,10.9,0.1,17.2,0.1
			c-4.8,11.6-9.3,22.5-13.7,33.4c-6.4,15.7-12.7,31.5-19.2,47.2c-8.2,19.7-22.2,23.4-41,19.7c-2.9-0.6-3.6-1.9-2.5-4.5
			c0.4-0.9,0.6-1.9,0.9-2.9c0.8-2.5,0.9-5.7,2.5-7.5c1.8-1.9,4.9,0,7.5-0.1c10.8-0.3,17.7-11.2,13.2-21c-9.1-20-18.1-40-27.4-59.9
			c-1.9-4-0.9-4.7,3-4.5c4.6,0.3,9.3,0.3,14,0c2.9-0.2,4,1,5.1,3.5C806.9,402.7,812.9,417.4,818.6,433.5z"/>
		<path class="st0" d="M159.6,382.5c21.2,0,36.1,12,39.2,31.6c3.2,20.5-9.1,37.8-29.8,41.3c-12,2.1-23.7,1.2-34.1-5.8
			c-11.8-7.9-16-19.7-15.2-33.3c0.9-14.8,8.2-25.4,22.2-30.8C147.6,383.4,153.5,382.4,159.6,382.5z M177.2,419.5
			c-0.1-10.3-4.3-17.9-11.4-20.3c-10.1-3.5-19.9,1.5-23.2,11.9c-3.9,12.3,1.4,25.8,11,28.6c0.2,0,0.3,0.1,0.5,0.1
			C167.4,443.1,177.3,434.4,177.2,419.5z"/>
		<path class="st0" d="M333.7,424.9c-7.2,0-14.3,0.2-21.5-0.1c-4.2-0.2-4.4,1.5-3.1,4.7c3.3,7.8,9.8,10.5,17.5,11.1
			c7.9,0.6,15.7-0.3,22.5-4.8c2.2-1.5,3-0.7,4.1,1.3c5.7,10.8,4.5,13.8-7.2,16.9c-10.4,2.8-21,3.3-31.6,0.8
			c-18.2-4.3-28.7-18-28.1-36.6c0.6-18.8,12.5-32.4,31.1-35.4c6.5-1.1,12.9-0.6,19.3,1.1c19.7,5.2,24.3,22.6,22.5,38.7
			c-0.3,2.5-2,2.2-3.6,2.2C348.3,424.9,341,424.9,333.7,424.9C333.7,424.9,333.7,424.9,333.7,424.9z M308.6,411.2
			c0.5,0.1,0.8,0.3,1.1,0.3c7.8,0.1,15.6,0.2,23.3,0.1c2,0,5,1.1,6-0.7c1.2-2.3-0.3-5.1-1.7-7.5c-1.4-2.4-3.5-4-6-4.9
			C321.3,394.8,309.5,399,308.6,411.2z"/>
		<path class="st0" d="M543.7,447c-10.6,9.6-22.4,11.5-35.2,7.3c-8-2.6-13.4-8-14.2-16.9c-0.9-9.1,2.2-16.2,10.3-21
			c6.8-4,14.3-5.3,22-5.8c3.6-0.2,7.3-0.1,11-0.1c5.3-0.1,6.3-1.7,3.8-6.6c-1.7-3.4-4.6-5.1-8.2-5.8c-8.5-1.6-16.6-0.3-24.3,3.2
			c-3.8,1.7-5.1,0.4-6.5-2.9c-4.1-9.7-4.2-9.6,5.9-12.7c10.8-3.3,21.8-4.2,33-2.2c13.7,2.5,21.3,10.3,22.1,24.2
			c0.9,14.8-0.2,29.6,0.9,44.4c0.2,2.2-1,2.5-2.7,2.4c-2.7,0-5.3,0-8,0C545.9,454.7,545.9,454.7,543.7,447z M534.4,423.4
			c-4.8,0-9.7,0.1-14,2.5c-3.5,2-5.2,5-4.8,9.1c0.4,3.6,2.9,5.5,6.1,6.5c6.7,2,14.9-0.8,19.3-6.2c2.8-3.4,1.9-7.5,1.2-10.9
			c-0.5-2.2-4.1-0.6-6.3-1C535.4,423.3,534.9,423.4,534.4,423.4z"/>
		<path class="st0" d="M896.1,456.2c-26.3,0.1-42.2-17.8-39-43.8c2-16.1,14.2-27.1,32.9-29.5c20.2-2.6,37.9,7,43.6,23.8
			C942.4,433.1,925.1,456.1,896.1,456.2z M914,419.5c0.2-9.6-4.5-17.7-11.6-20.3c-10.1-3.7-19.8,1.2-23.2,11.7
			c-4,12.4,1.5,26.3,11.4,28.8C903.9,443,913.8,434.5,914,419.5z"/>
		<path class="st0" d="M754.6,446.6c-8.5,8.1-18.3,11.1-29.8,9.1c-10.6-1.9-17.9-8.7-19.1-18.3c-1.3-10.3,3.7-18.3,14-22.8
			c9.3-4.1,19.1-4.1,28.9-4c5.5,0,6.8-2.3,3.9-7.2c-2.6-4.4-7-5.4-11.6-5.7c-7.3-0.6-14.3,0.9-20.9,3.9c-3.8,1.8-5.2,0.5-6.5-2.8
			c-3.9-9.7-4-9.7,6.2-12.8c10.5-3.2,21.1-4.2,32-2.3c14.8,2.7,22.5,11.5,22.7,26.5c0.1,9.7,0,19.3,0.1,29c0,3,0.1,6,0.5,9
			c0.8,6.6,0.8,6.6-6.1,6.7c-1.3,0-2.7,0-4,0C756.5,454.7,756.5,454.7,754.6,446.6z M744,423.4c-3.5-0.1-8.1,0.1-12.4,2.4
			c-3.7,1.9-5.1,5.1-4.6,9.1c0.5,3.9,3.1,5.8,6.6,6.5c7,1.3,13.1-0.5,18.2-5.8c3.1-3.3,2.3-7.4,1.5-10.9c-0.6-2.8-4.3-0.9-6.5-1.4
			C746.2,423.3,745.7,423.4,744,423.4z"/>
		<path class="st0" d="M228.2,392.4c7.7-8.3,17.2-11.1,28.1-9.5c13.7,2,21.1,9.2,21.8,23c0.8,15.3,0.2,30.6,0.3,45.9
			c0,2.3-1,2.8-3,2.8c-4.8-0.1-9.7-0.2-14.5,0c-3.1,0.2-4-0.9-3.9-3.9c0.2-9.8,0.2-19.6,0.2-29.5c0-4,0-8-0.4-12
			c-0.9-7.1-6.1-11.1-13.3-10.3c-9.2,0.9-14.6,6.8-14.7,16.1c-0.1,11.5-0.3,23,0,34.5c0.1,4.3-1.2,5.4-5.3,5.1
			c-4.3-0.3-8.7-0.2-13,0c-2.4,0.1-3.2-0.7-3.2-3.1c0.1-21.3,0.1-42.6,0-63.9c0-2.3,0.6-3.4,3.1-3.2c2.3,0.2,4.7,0.1,7,0.1
			C225.6,384.6,225.6,384.6,228.2,392.4z"/>
		<path class="st0" d="M446.4,418.4c0-5-0.2-10,0.1-15c0.2-3.6-1.1-4.5-4.5-4.4c-7.6,0.1-7.6-0.1-7.3-7.6c0.2-6.7,0.2-7,7-6.7
			c4,0.2,5.5-1.2,4.8-5c-0.1-0.3,0-0.7,0-1c0.4-3.9-1.9-9.9,0.9-11.4c5.4-2.9,12.1-3,18.5-3c2.1,0,1.7,1.7,1.7,2.9
			c0,4.3,0.3,8.7,0,13c-0.3,3.6,1.2,4.5,4.6,4.3c4.5-0.2,9,0.1,13.5,0c2.6-0.1,3.4,0.9,3.5,3.4c0.7,11.2,0.8,11.2-10.4,11.4
			c-11.1,0.2-11.2,0.2-11.1,11.6c0,6.5-0.1,13,0.3,19.5c0.4,6.9,3.7,9.8,10.6,9.8c1.7,0,3.5,0.1,4.9-0.5c5.8-2.3,6.7,0.9,6.5,5.5
			c0,0.5,0.1,1,0.1,1.5c0.6,7.3,0.5,7.6-6.9,8.8c-8.3,1.4-16.5,1.6-24.5-1.9c-8.8-3.8-11.9-11.1-12.2-20
			C446.2,428.4,446.4,423.4,446.4,418.4C446.4,418.4,446.4,418.4,446.4,418.4z"/>
		<path class="st0" d="M402.8,382.5c9.9,0.1,17.1,1.3,23.9,4.3c3.1,1.3,4.5,2.9,2.6,6.3c-1.6,2.9-1.9,7.1-4.2,8.9
			c-2.7,2.2-5.6-2.2-8.9-2.4c-2.8-0.2-5.6-1-8.4-1c-13.5-0.2-22.1,8.6-21.4,21.9c0.7,13.4,10.6,21.5,24,19.8c4.5-0.6,8.9-1.6,12.7-4
			c1.9-1.2,2.9-1.3,3.5,1.1c0.3,1.3,0.9,2.5,1.4,3.7c4,9.7,4,9.9-6.3,12.9c-11.3,3.3-22.7,3.6-33.9-0.3c-14.2-4.9-22.9-17-23.5-32.7
			c-0.6-15.3,7.4-28.5,21-34.4C391.7,383.7,398.3,382.3,402.8,382.5z"/>
		<path class="st0" d="M964.5,393.3c4.6-5.6,9.7-9.4,16.5-10.2c1-0.1,2-0.3,3-0.3c8.8-0.2,9.5,0.7,7.7,9.1c-0.2,0.8-0.4,1.6-0.5,2.5
			c-0.4,4.8-1.8,7-7.8,6.4c-11.9-1.1-18.3,5.6-18.3,17.5c0,10.7-0.1,21.3,0.1,32c0.1,3.6-1,4.6-4.5,4.4c-4.6-0.3-9.3-0.2-14-0.1
			c-2.2,0-2.9-0.8-2.9-2.9c0.1-21.5,0.1-43,0-64.5c0-2.4,1-2.8,3-2.7c1.8,0.1,3.7,0,5.5,0C961.3,384.6,961.3,384.6,964.5,393.3z"/>
	</g>
</g>
</svg>
